<svg xmlns="http://www.w3.org/2000/svg" version="1.1" xmlns:xlink="http://www.w3.org/1999/xlink" xmlns:svgjs="http://svgjs.dev/svgjs" viewBox="0 0 800 800"><defs><linearGradient x1="50%" y1="0%" x2="50%" y2="100%" id="ccchaos-grad"><stop stop-color="hsl(1.4, 100%, 67%)" stop-opacity="1" offset="0%"></stop><stop stop-color="hsl(167, 52%, 78%)" stop-opacity="1" offset="100%"></stop></linearGradient></defs><g stroke-width="2" stroke="url(#ccchaos-grad)" fill="none" stroke-linecap="round"><path d="M391.01 28.9C397.38 30.3 403.65 31.67 409.81 32.98 415.97 34.04 422.02 35.01 427.95 35.87 436.8 36.69 453.89 37.48 462.14 37.55 470.26 37.35 485.9 37.09 493.44 37.25 500.87 37.66 515.24 39.93 522.21 41.93 529.14 44.58 542.74 51.97 549.46 56.71 554 60.2 558.52 64.01 563.04 68.12 567.66 72.41 572.29 76.96 576.95 81.74 581.74 86.63 586.57 91.71 591.48 96.94 596.53 102.22 601.67 107.61 606.9 113.07 612.3 118.51 617.81 123.98 623.44 129.48 629.24 134.89 635.17 140.29 641.22 145.67 647.45 150.92 653.79 156.13 660.25 161.29 666.85 166.31 673.55 171.27 680.32 176.19 687.2 180.95 694.12 185.67 701.06 190.35 708.03 194.88 714.97 199.4 721.84 203.89 728.67 208.27 735.36 212.65 741.87 217.04 748.24 221.33 754.36 225.65 760.19 230.02 765.78 234.31 771.01 238.66 775.82 243.08 782.3 249.68 792.15 263.26 795.38 270.29 797.35 277.39 797.64 292.17 796.01 299.86 794.36 305.02 792.19 310.3 789.54 315.71 786.63 321.11 783.32 326.64 779.67 332.29 775.92 337.94 771.93 343.71 767.78 349.6 763.72 355.49 759.61 361.5 755.53 367.63 751.72 373.76 748.06 380.01 744.6 386.38 741.58 392.75 738.9 399.18 736.58 405.65 734.79 412.13 733.39 418.66 732.4 425.24 731.95 431.83 731.89 438.48 732.2 445.18 733 451.9 734.12 458.69 735.5 465.53 737.29 472.41 739.25 479.35 741.35 486.36 743.71 493.39 746.11 500.5 748.48 507.68 750.95 514.89 753.3 522.17 755.48 529.51 757.61 536.87 759.48 544.29 761.04 551.75 762.43 559.22 763.45 566.72 764.05 574.22 764.4 581.71 764.3 589.18 763.74 596.61 762.86 603.97 761.5 611.25 759.66 618.42 757.5 625.47 754.86 632.36 751.76 639.05 748.34 645.56 744.5 651.81 740.24 657.77 735.71 663.47 730.81 668.82 725.58 673.79 720.12 678.44 714.37 682.66 708.36 686.42 702.19 689.83 695.81 692.75 689.25 695.17 682.58 697.24 675.79 698.83 668.88 699.92 661.92 700.73 654.9 701.1 647.83 701.07 640.75 700.87 633.66 700.36 626.56 699.59 619.49 698.83 612.45 697.95 605.43 697.02 598.46 696.3 591.54 695.69 584.67 695.27 577.85 695.29 571.09 695.64 564.39 696.4 557.75 697.77 551.17 699.66 544.64 702.12 538.17 705.29 531.75 709.06 525.38 713.44 519.06 718.5 512.78 724.11 506.54 730.22 500.34 736.84 494.16 743.81 488.01 751.03 481.89 758.46 475.79 765.9 469.69 773.22 463.62 780.38 457.55 787.14 451.48 793.36 445.42 799.04 439.36 803.93 433.28 807.92 427.22 811.05 421.14 813.13 415.04 814.09 408.95 814.07 402.84 812.91 396.71 810.63 390.58 807.47 384.43 803.32 378.26 798.29 372.09 792.69 365.98 786.54 359.92 780.03 353.86 773.43 347.86 766.78 341.91 760.25 335.97 754.1 330.09 748.35 324.28 743.11 318.46 738.6 312.72 734.76 307.04 731.66 298.58 728.72 282.03 727.81 273.97 729.55 266 732.74 250.49 741.08 242.97 745.54 235.55 749.84 221.15 756.16 214.18 757.71 207.29 757.86 193.92 753.68 187.44 749.33 183.12 745.61 178.88 741.22 174.73 736.2 170.53 730.71 166.41 724.68 162.36 718.19 158.27 711.36 154.25 704.18 150.29 696.71 146.28 689.06 142.33 681.24 138.44 673.32 134.5 665.35 130.62 657.36 126.79 649.41 122.91 641.54 119.08 633.76 115.32 626.11 111.5 618.62 107.74 611.3 104.05 604.15 100.31 597.21 96.64 590.45 93.05 583.88 89.42 577.52 85.87 571.34 82.41 565.32 78.92 559.51 75.53 553.83 72.24 548.27 68.94 542.89 65.75 537.6 62.69 532.38 58.15 524.77 49.79 509.83 45.98 502.4 42.37 495.03 35.99 480.05 33.24 472.37 30.72 464.63 26.59 448.58 24.99 440.26 24.02 434.67 23.22 428.95 22.6 423.1 22.01 417.24 21.6 411.26 21.37 405.14 21.17 399.02 21.14 392.77 21.3 386.4 21.48 380.03 21.84 373.6 22.37 367.15 22.93 360.69 23.65 354.2 24.54 347.69 25.44 341.19 26.51 334.67 27.74 328.15 28.98 321.64 30.37 315.14 31.91 308.65 33.45 302.19 35.14 295.75 36.97 289.34 38.78 282.98 40.73 276.66 42.8 270.4 44.85 264.19 47.02 258.06 49.31 252.01 51.56 246.03 53.92 240.14 56.38 234.38 58.79 228.69 61.3 223.13 63.9 217.72 67.78 209.8 75.88 194.93 80.09 188.02 84.32 181.43 93.13 169.35 97.72 163.84 102.35 158.61 112.06 149.06 117.16 144.68 122.36 140.39 133.33 132.19 139.12 128.17 145.06 123.98 157.6 115.31 164.21 110.72 168.69 107.45 173.3 104.09 178.03 100.65 182.81 97.01 187.7 93.27 192.71 89.46 197.77 85.46 202.94 81.4 208.21 77.3 213.53 73.06 218.96 68.82 224.48 64.6 230.04 60.32 235.7 56.13 241.44 52.05 247.22 48 253.08 44.14 259.01 40.5 264.98 36.99 271.01 33.76 277.1 30.84 283.21 28.13 289.38 25.78 295.6 23.8 301.84 22.08 308.11 20.76 314.42 19.84 320.75 19.17 327.1 18.89 333.46 18.98 339.85 19.27 346.24 19.88 352.64 20.8 359.04 21.81 365.45 23.04 371.85 24.46 378.25 25.86 384.63 27.35 391 28.9" stroke-dasharray="7 0" transform="rotate(0, 400, 400)" opacity="0.94"></path><path d="M386.03 43.7C392.08 45.11 398.04 46.5 403.91 47.83 412.66 49.42 429.68 51.7 437.95 52.39 446.11 52.62 461.94 52.56 469.61 52.42 477.2 52.22 491.94 52.46 499.13 53.1 506.28 54.14 520.33 57.93 527.27 60.76 531.94 62.98 536.59 65.53 541.22 68.41 550.72 74.82 560.28 82.47 569.97 91.19 580.13 100.47 590.56 110.51 601.33 121.09 612.67 131.74 624.42 142.63 636.56 153.58 649.22 164.21 662.2 174.73 675.36 185.09 688.75 194.96 702.04 204.66 714.99 214.23 727.62 223.32 739.45 232.38 750.17 241.48 755.17 245.9 759.79 250.36 764.01 254.85 769.63 261.52 777.9 275.11 780.45 282.07 781.86 289.06 781.37 303.49 779.53 310.95 777.82 315.95 775.64 321.06 773.03 326.29 770.22 331.5 767.05 336.84 763.58 342.3 760.04 347.75 756.29 353.32 752.4 359.02 748.6 364.71 744.76 370.53 740.94 376.48 737.38 382.42 733.95 388.49 730.69 394.7 727.83 400.91 725.27 407.18 723.03 413.51 721.26 419.84 719.85 426.23 718.79 432.69 718.23 439.15 718.01 445.67 718.12 452.26 718.69 458.86 719.55 465.52 720.65 472.24 722.13 478.98 723.78 485.78 725.58 492.64 727.63 499.5 729.73 506.43 731.83 513.4 734.06 520.37 736.2 527.39 738.2 534.44 740.21 541.48 742 548.54 743.53 555.59 744.95 562.62 746.05 569.63 746.81 576.59 747.36 583.49 747.52 590.33 747.27 597.06 745.98 610.21 742.94 622.73 738.19 634.36 732.3 645.18 724.83 654.76 715.94 662.85 706.17 669.82 695.27 675.1 683.49 678.62 671.21 681.11 658.33 682.07 645.08 681.72 631.69 681.15 618.13 680.04 604.54 678.89 591.04 678.9 577.63 679.9 564.36 682.4 557.79 684.52 551.26 687.15 544.78 690.3 538.35 694.08 531.95 698.4 525.6 703.24 519.3 708.65 513.03 714.52 506.8 720.77 500.62 727.41 494.46 734.3 488.33 741.33 482.23 748.47 476.16 755.54 470.1 762.41 464.07 769.07 458.06 775.29 452.06 780.96 446.07 786.08 440.09 790.44 434.12 793.95 428.16 796.65 422.2 798.37 416.24 799.05 410.28 798.85 404.32 797.6 398.37 795.32 392.41 792.25 386.45 788.28 380.48 783.49 374.52 778.19 368.62 772.38 362.79 766.21 356.95 759.95 351.19 753.62 345.5 747.36 339.8 741.42 334.17 735.8 328.62 730.61 323.07 726.05 317.58 722.08 312.18 718.75 304.11 715.29 288.37 712.91 280.7 713.8 273.12 716.12 258.37 722.98 251.21 726.95 244.12 730.99 230.37 737.61 223.7 739.7 214.8 741 206.22 739.79 197.96 735.98 189.57 730.09 181.45 721.73 173.61 711.24 165.57 699.24 157.77 685.8 150.2 671.38 142.4 656.45 134.82 641.23 127.47 626.06 119.91 611.17 112.6 596.7 105.57 582.78 98.39 569.47 91.55 556.76 85.11 544.58 81.86 538.72 78.73 532.96 75.71 527.3 72.7 521.77 69.81 516.3 67.05 510.9 63.01 502.96 55.69 487.29 52.43 479.49 49.39 471.73 44.18 456.05 42.03 448.06 40.12 440.03 37.23 423.55 36.25 415.08 35.7 409.4 35.33 403.63 35.14 397.76 34.98 391.88 35.01 385.91 35.21 379.84 35.44 373.78 35.85 367.69 36.44 361.58 37.04 355.48 37.82 349.38 38.75 343.27 39.7 337.17 40.81 331.07 42.08 324.99 43.35 318.93 44.76 312.89 46.32 306.89 47.88 300.91 49.57 294.97 51.4 289.09 53.21 283.25 55.14 277.47 57.19 271.77 59.22 266.12 61.35 260.56 63.6 255.1 66.95 247.05 74.08 231.66 77.83 224.37 80.3 219.63 82.86 215.04 85.5 210.61 90.61 201.96 96.04 193.98 101.76 186.69 107.31 179.6 113.19 173.12 119.4 167.21 125.51 161.26 132.01 155.67 138.91 150.36 145.8 144.65 153.15 138.96 160.93 133.16 168.8 126.66 177.15 119.89 185.95 112.8 194.88 104.96 204.27 96.87 214.08 88.65 219.04 84.37 224.1 80.12 229.26 75.93 234.45 71.71 239.73 67.6 245.1 63.64 250.51 59.74 255.99 56.04 261.54 52.58 267.13 49.27 272.78 46.25 278.5 43.54 284.24 41.05 290.03 38.92 295.88 37.16 301.74 35.64 307.65 34.51 313.59 33.77 319.55 33.26 325.54 33.12 331.55 33.34 337.57 33.73 343.61 34.43 349.66 35.41 355.72 36.48 361.78 37.76 367.85 39.21 373.91 40.62 379.97 42.13 386.02 43.7" stroke-dasharray="8 1" transform="rotate(4.04, 400, 400)" opacity="0.18"></path><path d="M381.98 58.5C390.56 60.62 407.36 64.3 415.57 65.74 426.45 66.83 437.02 67.53 447.28 67.93 457.55 67.6 467.53 67.34 477.24 67.38 487.03 67.37 496.61 68.13 506.02 69.85 515.6 72.15 525.12 75.68 534.64 80.47 544.44 86.07 554.37 92.9 564.46 100.83 574.96 109.39 585.74 118.8 596.82 128.87 608.37 139.17 620.24 149.83 632.38 160.69 644.91 171.39 657.6 182.1 670.31 192.73 683.1 202.98 695.63 213.1 707.67 223.08 719.28 232.65 730.01 242.14 739.56 251.61 748.13 260.73 755.14 269.93 760.38 279.27 764.25 288.38 766.16 297.73 766.06 307.37 764.65 316.88 761.42 326.75 756.55 337.02 751 347.22 744.38 357.87 737.06 368.98 733.52 374.52 729.94 380.19 726.38 385.97 723.05 391.76 719.84 397.67 716.78 403.71 714.08 409.75 711.64 415.85 709.48 422.01 707.74 428.16 706.32 434.38 705.21 440.66 704.33 453.22 704.62 466.01 705.93 478.98 708.64 491.96 711.89 505.11 715.37 518.34 719.43 531.52 723.09 544.68 726.07 557.71 728.77 570.52 730.3 583 730.48 594.96 729.84 606.43 727.63 617.12 723.88 626.79 719.13 635.66 712.88 643.28 705.28 649.47 696.82 654.71 687.22 658.47 676.68 660.76 665.6 662.37 653.84 662.85 641.57 662.45 629.08 662.22 616.3 661.85 603.37 661.79 590.44 663.09 577.49 665.54 564.59 669.51 551.81 675.69 539.13 683.73 526.58 693.57 514.18 705.3 501.89 718.17 489.75 731.57 477.71 745.1 465.77 757.66 453.93 768.37 442.15 776.93 430.44 782.29 418.78 783.97 412.96 783.59 407.15 782.27 401.36 780.01 395.56 777.03 389.78 773.24 384 768.7 378.22 763.69 372.52 758.2 366.9 752.38 361.27 746.45 355.72 740.43 350.25 734.46 339.29 723.38 328.64 713.69 318.31 706.02 307.96 701.13 297.92 698.68 288.22 698.47 278.49 700.73 269.08 704.34 260 708.64 250.87 713.66 242.06 718.05 233.56 721.2 224.97 723.35 216.66 723.41 208.64 721.22 200.47 717.24 192.55 710.94 184.86 702.54 176.99 692.6 169.32 681.05 161.87 668.29 154.2 654.75 146.73 640.6 139.49 626.17 132.04 611.7 124.84 597.35 117.92 583.31 110.87 569.65 104.14 556.42 97.8 543.66 91.42 531.36 85.49 519.46 80.06 507.9 74.69 496.7 69.89 485.7 65.69 474.81 61.63 464.13 58.22 453.42 55.49 442.62 52.93 431.91 51.06 421.01 49.91 409.91 49.23 401.56 48.84 384.56 49.12 375.91 49.63 367.23 51.54 349.94 52.92 341.35 54.92 329.93 57.51 318.65 60.66 307.59 63.79 296.6 67.42 285.89 71.51 275.54 75.49 265.33 79.87 255.56 84.6 246.29 89.16 237.21 94.04 228.68 99.21 220.75 104.17 213 109.41 205.83 114.94 199.25 120.27 192.72 125.9 186.67 131.84 181.04 137.66 175.22 143.83 169.63 150.36 164.16 156.86 158.2 163.76 152.16 171.07 145.94 178.41 139.02 186.2 131.83 194.42 124.35 202.72 116.23 211.46 107.95 220.61 99.64 229.86 91.07 239.5 82.83 249.49 75.13 259.58 67.81 270 61.46 280.67 56.3 291.42 52.02 302.41 49.15 313.56 47.78 324.77 47.28 336.11 48.1 347.53 50.07 353.25 51.19 358.99 52.5 364.73 53.97 370.47 55.4 376.22 56.92 381.97 58.49" stroke-dasharray="4 8" transform="rotate(8.08, 400, 400)" opacity="0.66"></path><path d="M379.13 73.29C390.07 75.99 400.78 78.49 411.26 80.64 421.73 81.84 431.98 82.64 441.99 83.14 452.02 82.89 461.86 82.65 471.52 82.62 481.26 82.45 490.89 82.93 500.43 84.24 510.15 86 519.87 88.88 529.64 92.92 539.69 97.72 549.88 103.7 560.25 110.78 570.97 118.53 581.94 127.19 593.15 136.6 604.72 146.36 616.52 156.61 628.48 167.18 640.68 177.75 652.91 188.44 665.02 199.16 677.06 209.63 688.72 220.04 699.78 230.35 710.34 240.31 719.94 250.2 728.36 260.03 735.81 269.55 741.77 279.09 746.06 288.69 749.11 298.06 750.37 307.58 749.81 317.31 748.14 326.89 744.85 336.75 740.1 346.94 734.82 357.04 728.6 367.52 721.77 378.39 715.31 389.23 708.9 400.51 702.87 412.23 698.13 423.96 694.35 435.87 691.65 447.93 690.56 460.01 690.5 472.23 691.35 484.53 693.51 496.82 696.19 509.15 699.12 521.42 702.67 533.58 705.95 545.58 708.69 557.27 711.31 568.68 712.95 579.61 713.46 589.87 713.31 599.63 711.8 608.51 708.9 616.33 705.15 623.46 700.01 629.37 693.59 634 686.39 637.91 678.05 640.59 668.75 642.12 658.9 643.32 648.29 643.75 637.1 643.7 625.62 644.12 613.75 644.73 601.63 645.92 589.42 648.55 577.09 652.4 564.73 657.72 552.41 665.03 540.13 673.95 527.93 684.35 515.82 696.23 503.8 708.88 491.9 721.72 480.09 734.4 468.38 745.94 456.78 755.58 445.23 763.13 433.77 767.68 422.4 768.83 411.06 767.09 399.78 761.99 388.58 753.9 377.39 744.13 366.51 733.03 355.97 721.52 345.41 710.85 335.16 701.3 325.24 693.43 315.29 688.03 305.65 684.78 296.34 683.59 286.98 684.75 277.93 687.3 269.19 690.7 260.38 695.06 251.85 699.14 243.62 702.4 235.28 705.07 227.19 706.08 219.35 705.2 211.36 702.86 203.59 698.41 196.03 691.98 188.28 684.09 180.73 674.53 173.37 663.59 165.81 651.73 158.45 639 151.3 625.71 143.97 612.12 136.88 598.38 130.07 584.69 123.14 571.14 116.53 557.83 110.31 544.86 104.06 532.2 98.24 519.87 92.92 507.89 87.67 496.2 82.96 484.76 78.86 473.52 74.9 462.47 71.57 451.52 68.91 440.62 66.44 429.81 64.65 418.96 63.57 408.05 62.68 397.17 62.49 386.18 63.03 375.1 63.71 364.02 65.07 353.1 67.06 342.39 69.11 331.69 71.75 321.23 74.92 311.06 78.06 300.95 81.69 291.18 85.74 281.81 89.68 272.54 93.99 263.72 98.64 255.41 103.11 247.2 107.88 239.51 112.93 232.36 117.75 225.27 122.85 218.67 128.2 212.53 133.35 206.33 138.77 200.47 144.48 194.88 150.04 189 155.92 183.21 162.12 177.43 168.26 171.13 174.76 164.67 181.64 158 188.52 150.68 195.8 143.1 203.47 135.31 211.2 126.99 219.33 118.61 227.85 110.31 236.44 101.91 245.41 93.92 254.71 86.58 264.09 79.7 273.79 73.82 283.76 69.15 293.79 65.34 304.07 62.9 314.53 61.88 325.04 61.67 335.71 62.69 346.49 64.78 357.29 67.11 368.18 70.03 379.12 73.29" stroke-dasharray="3 4" transform="rotate(12.12, 400, 400)" opacity="0.46"></path><path d="M377.67 88.09C388.09 90.79 398.36 93.32 408.47 95.53 418.57 96.82 428.53 97.74 438.33 98.35 448.16 98.2 457.88 98.02 467.49 97.96 477.2 97.69 486.86 97.95 496.5 98.9 506.3 100.2 516.17 102.48 526.11 105.82 536.29 109.83 546.63 114.96 557.13 121.16 567.92 128.03 578.91 135.85 590.07 144.48 601.49 153.54 613.03 163.19 624.63 173.28 636.34 183.51 647.96 193.98 659.33 204.58 670.53 215.06 681.24 225.57 691.26 236.03 700.74 246.26 709.24 256.44 716.55 266.55 722.96 276.41 727.94 286.25 731.36 296.11 733.68 305.76 734.38 315.5 733.45 325.36 731.57 335.08 728.27 344.99 723.69 355.14 718.69 365.21 712.88 375.56 706.53 386.23 700.55 396.86 694.6 407.84 688.96 419.17 684.48 430.49 680.84 441.92 678.12 453.4 676.84 464.87 676.46 476.39 676.9 487.87 678.55 499.3 680.68 510.64 683.08 521.79 686.12 532.8 688.99 543.49 691.45 553.74 693.9 563.7 695.56 573.05 696.27 581.66 696.48 589.8 695.52 597.04 693.34 603.26 690.44 608.92 686.29 613.49 680.94 616.97 674.89 619.98 667.75 622.04 659.65 623.26 651.01 624.45 641.58 625.22 631.51 625.84 621.1 627.16 610.23 628.9 599.02 631.38 587.66 635.32 576.09 640.46 564.4 646.96 552.7 655.19 540.95 664.76 529.23 675.47 517.56 687.3 505.93 699.56 494.39 711.71 482.91 723.48 471.51 733.98 460.22 742.58 448.98 749.18 437.82 752.98 426.76 753.65 415.73 751.73 404.78 746.78 393.93 739.1 383.08 729.92 372.56 719.47 362.38 708.57 352.17 698.32 342.29 688.96 332.72 681 323.12 675.17 313.83 671.23 304.84 669.15 295.8 669.26 287.04 670.76 278.58 673.21 270.03 676.78 261.74 680.37 253.71 683.49 245.56 686.38 237.65 688.01 229.96 688.11 222.11 687.09 214.46 684.24 207.01 679.59 199.37 673.63 191.91 666.01 184.64 656.97 177.19 646.94 169.92 635.87 162.87 624.02 155.65 611.7 148.68 598.96 141.98 586.05 135.19 573.06 128.71 560.11 122.61 547.33 116.51 534.71 110.83 522.32 105.63 510.21 100.52 498.3 95.94 486.64 91.94 475.22 88.1 463.96 84.87 452.86 82.31 441.91 79.94 431.05 78.24 420.26 77.24 409.54 76.44 398.84 76.33 388.17 76.94 377.53 77.7 366.89 79.12 356.53 81.15 346.46 83.26 336.4 85.92 326.66 89.09 317.27 92.25 307.91 95.86 298.94 99.87 290.39 103.78 281.89 108.04 273.83 112.61 266.25 117.01 258.7 121.69 251.61 126.62 244.98 131.34 238.3 136.31 232.02 141.5 226.09 146.5 219.97 151.75 214.08 157.25 208.34 162.59 202.24 168.22 196.13 174.15 189.96 179.97 183.24 186.13 176.35 192.62 169.25 199.08 161.57 205.91 153.69 213.1 145.67 220.3 137.26 227.88 128.89 235.82 120.72 243.81 112.57 252.15 104.94 260.81 98.03 269.54 91.63 278.57 86.27 287.88 82.11 297.23 78.77 306.84 76.76 316.65 76.08 326.5 76.14 336.53 77.33 346.72 79.52 356.91 81.91 367.24 84.84 377.66 88.08" stroke-dasharray="8 4" transform="rotate(16.16, 400, 400)" opacity="0.90"></path><path d="M377.7 102.88C387.65 105.59 397.51 108.13 407.27 110.38 417.05 111.77 426.73 112.81 436.33 113.54 445.98 113.52 455.57 113.42 465.12 113.38 474.76 113.06 484.41 113.15 494.09 113.82 503.91 114.72 513.82 116.48 523.83 119.17 534.03 122.44 544.38 126.75 554.86 132.07 565.55 138.03 576.39 144.95 587.32 152.69 598.41 160.93 609.54 169.83 620.61 179.27 631.69 188.94 642.56 198.97 653.09 209.23 663.37 219.51 673.09 229.89 682.06 240.32 690.46 250.61 697.89 260.9 704.15 271.15 709.57 281.22 713.66 291.26 716.31 301.3 718 311.17 718.23 321.08 717 331.04 714.98 340.89 711.71 350.85 707.33 360.95 702.63 370.99 697.22 381.22 691.33 391.66 685.81 402.07 680.3 412.72 675.05 423.61 670.84 434.49 667.32 445.35 664.61 456.16 663.17 466.96 662.52 477.67 662.59 488.22 663.76 498.71 665.38 508.98 667.27 518.93 669.81 528.73 672.24 538.1 674.38 546.94 676.61 555.49 678.19 563.39 678.99 570.51 679.18 580.19 673.45 594.44 667.4 599.02 662.39 601.56 656.35 603.42 649.38 604.74 641.9 606.29 633.62 607.7 624.68 609.21 615.38 611.57 605.56 614.51 595.32 618.27 584.9 623.41 574.19 629.68 563.29 637.14 552.32 646.06 541.24 656.03 530.12 666.84 519 678.42 507.88 690.14 496.8 701.51 485.75 712.32 474.76 721.79 463.85 729.37 452.97 735.08 442.17 738.18 431.47 738.43 420.79 736.36 410.18 731.57 399.68 724.31 389.18 715.69 379 705.88 369.15 695.59 359.29 685.79 349.73 676.67 340.47 668.68 331.18 662.54 322.18 658.02 313.47 655.15 304.7 654.29 296.19 654.77 287.94 656.26 279.61 658.95 271.51 661.89 263.65 664.66 255.67 667.49 247.89 669.43 240.32 670.2 232.59 670.17 225.05 668.61 217.69 665.48 210.15 661.23 202.79 655.43 195.6 648.23 188.26 640.07 181.09 630.77 174.14 620.55 167.06 609.74 160.21 598.34 153.64 586.54 147 574.51 140.67 562.32 134.72 550.13 128.78 537.94 123.25 525.85 118.2 513.95 113.25 502.15 108.81 490.55 104.95 479.18 101.24 467.91 98.14 456.84 95.69 445.96 93.43 435.15 91.84 424.49 90.92 413.98 90.21 403.49 90.18 393.12 90.85 382.88 91.68 372.64 93.15 362.75 95.21 353.24 97.35 343.72 100.03 334.57 103.19 325.82 106.35 317.07 109.93 308.72 113.9 300.79 117.77 292.87 121.98 285.36 126.47 278.27 130.81 271.15 135.41 264.42 140.24 258.05 144.87 251.57 149.74 245.37 154.81 239.41 159.68 233.19 164.79 227.1 170.12 221.07 175.28 214.64 180.69 208.14 186.37 201.53 191.94 194.41 197.8 187.11 203.96 179.64 210.06 171.68 216.49 163.6 223.25 155.48 229.99 147.09 237.08 138.86 244.51 130.93 251.95 123.14 259.72 115.94 267.81 109.52 275.93 103.66 284.35 98.84 293.06 95.19 301.78 92.34 310.77 90.73 319.99 90.37 329.22 90.68 338.67 92.04 348.3 94.31 357.93 96.74 367.74 99.67 377.69 102.88" stroke-dasharray="6 3" transform="rotate(20.200000000000003, 400, 400)" opacity="0.92"></path><path d="M379.21 117.68C388.73 120.37 398.21 122.93 407.65 125.22 417.1 126.7 426.53 127.85 435.92 128.7 445.36 128.83 454.8 128.84 464.25 128.86 473.77 128.54 483.35 128.54 492.98 128.99 502.74 129.57 512.58 130.88 522.52 133 532.62 135.58 542.82 139.12 553.12 143.59 563.57 148.65 574.09 154.62 584.63 161.44 595.24 168.76 605.8 176.79 616.21 185.42 626.55 194.37 636.59 203.76 646.2 213.47 655.51 223.31 664.21 233.35 672.13 243.51 679.49 253.64 685.88 263.82 691.17 274.01 695.69 284.11 698.97 294.19 700.94 304.26 702.09 314.22 701.92 324.18 700.48 334.16 698.38 344.05 695.18 353.99 691.02 364 686.63 373.95 681.61 384.01 676.18 394.17 671.1 404.32 666.02 414.59 661.14 424.97 657.18 435.36 653.81 445.61 651.12 455.69 649.55 465.75 648.67 475.61 648.4 485.2 649.13 494.73 650.28 503.92 651.69 512.7 653.73 521.34 655.72 529.47 657.5 537.02 660.18 547.66 662.16 564.94 660.86 571.43 657.94 576.82 646.42 584.32 637.97 587.1 631.57 589.27 624.4 591.53 616.54 594.07 608.34 597.52 599.58 601.63 590.36 606.57 580.93 612.76 571.14 619.96 561.1 628.15 550.96 637.51 540.64 647.66 530.21 658.35 519.75 669.51 509.23 680.57 498.71 691.08 488.19 700.91 477.69 709.35 467.24 715.96 456.8 720.82 446.42 723.29 436.11 723.16 425.82 720.99 415.59 716.36 405.45 709.51 395.31 701.45 385.48 692.27 375.95 682.58 366.41 673.25 357.15 664.41 348.19 656.49 339.18 650.11 330.44 645.12 321.97 641.57 313.43 639.84 305.14 639.36 297.08 639.89 288.93 641.66 281 643.84 273.28 646.08 265.44 648.62 257.78 650.59 250.31 651.71 242.7 652.34 235.26 651.74 227.98 649.82 220.55 647.02 213.29 642.83 206.2 637.32 198.97 630.94 191.93 623.4 185.09 614.89 178.16 605.73 171.46 595.85 165.03 585.41 158.57 574.64 152.41 563.53 146.63 552.25 140.87 540.86 135.53 529.43 130.64 518.05 125.87 506.7 121.6 495.45 117.89 484.38 114.34 473.36 111.39 462.51 109.05 451.86 106.93 441.26 105.44 430.83 104.61 420.59 104 410.37 104.04 400.32 104.76 390.45 105.64 380.59 107.15 371.12 109.22 362.06 111.38 352.98 114.06 344.3 117.21 336.03 120.35 327.73 123.9 319.83 127.82 312.32 131.65 304.78 135.8 297.6 140.23 290.79 144.5 283.88 149.03 277.29 153.78 270.97 158.33 264.47 163.11 258.17 168.07 252.02 172.84 245.57 177.83 239.17 183.01 232.76 188.03 225.95 193.27 219.05 198.75 212.02 204.09 204.54 209.71 196.92 215.59 189.17 221.38 181.06 227.48 172.91 233.86 164.8 240.21 156.58 246.88 148.6 253.85 141.01 260.81 133.67 268.09 126.97 275.66 121.1 283.24 115.81 291.12 111.55 299.28 108.42 307.44 106.04 315.87 104.83 324.54 104.77 333.22 105.32 342.13 106.81 351.25 109.14 360.37 111.6 369.69 114.5 379.21 117.68" stroke-dasharray="3 1" transform="rotate(24.24, 400, 400)" opacity="0.51"></path><path d="M382.12 132.48C391.22 135.15 400.34 137.7 409.46 140.02 418.59 141.59 427.75 142.86 436.91 143.84 446.12 144.12 455.36 144.26 464.64 144.37 474 144.1 483.42 144.06 492.9 144.37 502.48 144.71 512.15 145.65 521.88 147.29 531.73 149.27 541.66 152.1 551.62 155.78 561.67 159.96 571.73 165.01 581.73 170.88 591.74 177.23 601.61 184.32 611.25 192.03 620.75 200.11 629.9 208.7 638.55 217.68 646.87 226.87 654.55 236.35 661.45 246.01 667.81 255.75 673.24 265.6 677.63 275.52 681.33 285.41 683.91 295.33 685.29 305.25 685.98 315.11 685.5 324.97 683.9 334.82 681.77 344.62 678.69 354.42 674.77 364.22 670.69 374 666.07 383.8 661.08 393.61 656.43 403.42 651.76 413.26 647.23 423.1 643.52 432.94 640.3 442.54 637.65 451.87 635.99 461.19 634.89 470.2 634.33 478.86 634.67 487.46 635.38 495.64 636.34 503.37 637.9 510.97 639.46 518.03 640.87 524.52 643.13 533.66 645.05 548.46 644.15 554.12 641.94 559.11 632.59 567.1 625.49 570.79 620.08 573.76 613.93 576.97 607.11 580.59 599.96 585.1 592.23 590.29 584.02 596.24 575.59 603.29 566.76 611.18 557.62 619.86 548.36 629.43 538.87 639.52 529.2 649.9 519.49 660.5 509.65 670.79 499.76 680.38 489.86 689.21 479.92 696.66 469.99 702.35 460.06 706.43 450.15 708.31 440.29 707.86 430.43 705.61 420.61 701.16 410.86 694.72 401.1 687.19 391.62 678.63 382.42 669.53 373.2 660.7 364.25 652.19 355.55 644.39 346.82 637.89 338.32 632.53 330.07 628.41 321.75 625.9 313.65 624.54 305.77 624.15 297.79 624.99 290.01 626.34 282.42 627.92 274.72 629.98 267.18 631.74 259.81 632.93 252.32 633.91 244.99 633.94 237.81 632.91 230.5 631.24 223.36 628.37 216.38 624.33 209.3 619.55 202.39 613.66 195.7 606.8 188.94 599.31 182.41 591.02 176.16 582.08 169.89 572.74 163.94 562.94 158.34 552.82 152.8 542.51 147.66 532.01 142.97 521.45 138.4 510.83 134.32 500.22 130.78 489.69 127.41 479.17 124.61 468.76 122.41 458.51 120.42 448.29 119.05 438.22 118.32 428.33 117.79 418.46 117.9 408.77 118.67 399.27 119.6 389.77 121.13 380.67 123.2 371.98 125.37 363.27 128.03 354.95 131.14 347 134.25 339.03 137.76 331.41 141.62 324.14 145.4 316.8 149.49 309.77 153.84 303.03 158.06 296.17 162.52 289.54 167.18 283.1 171.67 276.46 176.37 269.93 181.24 263.48 185.93 256.73 190.81 249.97 195.88 243.17 200.77 236 205.87 228.74 211.18 221.36 216.35 213.62 221.76 205.79 227.41 197.9 232.95 189.77 238.77 181.68 244.84 173.74 250.86 165.8 257.16 158.19 263.74 151.06 270.29 144.24 277.14 138.11 284.26 132.83 291.38 128.13 298.77 124.44 306.44 121.82 314.1 119.9 322.03 119.06 330.22 119.28 338.39 120.03 346.82 121.65 355.47 124.02 364.12 126.48 373 129.35 382.11 132.47" stroke-dasharray="10 2" transform="rotate(28.28, 400, 400)" opacity="0.26"></path><path d="M386.21 147.27C394.92 149.91 403.68 152.45 412.47 154.79 421.28 156.44 430.14 157.81 439.04 158.93 447.97 159.37 456.96 159.67 466.01 159.9 475.11 159.71 484.28 159.69 493.5 159.93 502.8 160.1 512.17 160.77 521.57 162.01 531.05 163.49 540.55 165.7 550.05 168.66 559.57 172.04 569.04 176.21 578.39 181.14 587.68 186.53 596.77 192.63 605.57 199.37 614.18 206.49 622.39 214.15 630.07 222.27 637.41 230.64 644.1 239.36 650.03 248.34 655.45 257.46 659.99 266.76 663.57 276.18 666.55 285.65 668.5 295.18 669.39 304.74 669.7 314.3 668.99 323.87 667.3 333.42 665.18 342.95 662.25 352.47 658.58 361.95 654.82 371.41 650.59 380.85 646.02 390.24 641.78 399.62 637.5 408.96 633.32 418.21 629.86 427.47 626.8 436.41 624.19 445.02 622.46 453.61 621.2 461.82 620.39 469.64 620.38 477.4 620.69 484.72 621.23 491.56 622.9 501.42 626.31 518.3 627.39 525.27 626.77 536.84 617.99 551.34 612.06 556.18 607.53 560.03 602.29 564.21 596.41 568.84 590.24 574.32 583.5 580.41 576.26 587.18 568.81 594.86 560.94 603.2 552.71 612.11 544.36 621.65 535.72 631.5 526.86 641.39 517.94 651.3 508.85 660.74 499.64 669.39 490.41 677.23 481.1 683.71 471.75 688.53 462.39 691.89 453.01 693.25 443.63 692.53 434.26 690.22 424.88 685.96 415.54 679.92 406.2 672.92 397.09 664.96 388.23 656.46 379.35 648.13 370.69 639.99 362.27 632.37 353.81 625.83 345.56 620.21 337.52 615.64 329.43 612.47 321.52 610.31 313.8 609.07 306.01 609 298.38 609.5 290.92 610.34 283.37 611.78 275.97 613.13 268.72 614.15 261.37 615.18 254.16 615.53 247.11 615.07 239.95 614.2 232.95 612.35 226.12 609.49 219.2 606.06 212.47 601.62 205.96 596.25 199.4 590.33 193.07 583.59 187.03 576.16 180.99 568.32 175.26 559.93 169.88 551.11 164.57 542.05 159.66 532.7 155.19 523.16 150.84 513.5 146.97 503.75 143.62 493.98 140.45 484.17 137.82 474.4 135.77 464.71 133.92 455.03 132.67 445.45 132.03 436.01 131.6 426.58 131.77 417.3 132.58 408.18 133.54 399.06 135.08 390.31 137.15 381.92 139.3 373.52 141.93 365.46 144.99 357.74 148.06 349.97 151.51 342.51 155.3 335.33 159.02 328.08 163.04 321.06 167.31 314.26 171.47 307.33 175.85 300.55 180.43 293.9 184.86 287.03 189.47 280.23 194.26 273.45 198.88 266.39 203.67 259.3 208.64 252.15 213.43 244.7 218.42 237.17 223.59 229.57 228.62 221.7 233.86 213.8 239.32 205.93 244.66 197.92 250.24 190.05 256.06 182.41 261.8 174.87 267.8 167.74 274.05 161.15 280.25 154.92 286.73 149.42 293.47 144.75 300.18 140.66 307.16 137.52 314.4 135.41 321.63 133.92 329.12 133.43 336.86 133.91 344.59 134.83 352.57 136.55 360.8 138.94 369.02 141.38 377.49 144.21 386.2 147.27" stroke-dasharray="10 8" transform="rotate(32.32, 400, 400)" opacity="0.36"></path><path d="M391.22 162.07C399.55 164.66 407.95 167.18 416.4 169.53 424.86 171.24 433.39 172.72 441.97 173.96 450.57 174.58 459.25 175.03 467.97 175.4 476.74 175.35 485.57 175.39 494.43 175.61 503.34 175.7 512.29 176.18 521.24 177.13 530.23 178.21 539.2 179.9 548.1 182.24 556.99 184.9 565.77 188.27 574.37 192.33 582.87 196.78 591.12 201.92 599.03 207.67 606.73 213.79 613.99 220.46 620.72 227.61 627.1 235.04 632.85 242.86 637.87 251 642.42 259.33 646.17 267.89 649.03 276.62 651.37 285.45 652.79 294.4 653.29 303.4 653.29 312.46 652.42 321.54 650.68 330.61 648.63 339.71 645.86 348.78 642.46 357.79 639.02 366.82 635.17 375.78 631.02 384.65 627.16 393.53 623.26 402.31 619.41 410.96 616.19 419.61 613.29 427.91 610.75 435.83 608.97 443.74 607.58 451.26 606.55 458.35 606.24 465.41 606.2 472.03 606.35 478.19 607.4 487.11 609.74 502.54 610.5 509.1 610.93 515.3 609.01 526.36 606.4 531.62 602.78 537.43 591.81 550.76 584.55 558.83 579.27 565.09 573.44 571.89 567.11 579.24 560.58 587.3 553.63 595.83 546.3 604.73 538.84 614.05 531.06 623.45 523.03 632.72 514.92 641.84 506.6 650.38 498.12 658.07 489.61 664.94 480.96 670.5 472.23 674.51 463.49 677.21 454.68 678.12 445.82 677.16 436.97 674.83 428.09 670.77 419.19 665.12 410.29 658.64 401.58 651.26 393.07 643.35 384.56 635.53 376.23 627.79 368.09 620.43 359.92 613.92 351.93 608.15 344.12 603.23 336.26 599.52 328.57 596.69 321.03 594.67 313.44 593.74 305.98 593.4 298.68 593.46 291.3 594.19 284.06 594.98 276.96 595.64 269.77 596.48 262.73 596.87 255.83 596.69 248.86 596.29 242.04 595.13 235.39 593.15 228.68 590.75 222.16 587.49 215.86 583.4 209.54 578.85 203.45 573.53 197.64 567.51 191.86 561.11 186.39 554.12 181.26 546.64 176.22 538.91 171.56 530.79 167.32 522.38 163.22 513.84 159.58 505.09 156.44 496.23 153.47 487.3 151.02 478.32 149.13 469.33 147.43 460.33 146.3 451.36 145.76 442.45 145.42 433.56 145.65 424.73 146.49 416.02 147.48 407.31 149.02 398.9 151.05 390.79 153.18 382.67 155.77 374.82 158.76 367.25 161.77 359.63 165.15 352.25 168.85 345.08 172.5 337.83 176.43 330.76 180.62 323.83 184.7 316.77 189 309.81 193.5 302.91 197.85 295.83 202.39 288.76 207.1 281.69 211.64 274.39 216.35 267.06 221.23 259.67 225.94 252.06 230.83 244.4 235.88 236.73 240.8 228.89 245.9 221.09 251.19 213.39 256.37 205.66 261.76 198.15 267.36 190.95 272.88 183.93 278.62 177.37 284.6 171.39 290.52 165.81 296.69 160.95 303.09 156.91 309.46 153.42 316.08 150.83 322.95 149.19 329.79 148.11 336.89 147.94 344.24 148.64 351.57 149.72 359.15 151.5 366.98 153.9 374.8 156.32 382.88 159.08 391.21 162.06" stroke-dasharray="10 7" transform="rotate(36.36, 400, 400)" opacity="0.12"></path><path d="M396.82 176.86C404.77 179.4 412.79 181.89 420.86 184.23 428.95 186.01 437.11 187.58 445.31 188.93 453.54 189.71 461.83 190.34 470.15 190.87 478.51 190.97 486.9 191.11 495.3 191.38 503.73 191.46 512.16 191.83 520.55 192.57 528.95 193.36 537.29 194.65 545.51 196.47 553.68 198.53 561.7 201.2 569.49 204.48 577.16 208.08 584.54 212.3 591.54 217.1 598.33 222.23 604.67 227.9 610.47 234.05 615.95 240.48 620.82 247.32 625 254.52 628.78 261.91 631.81 269.59 634.05 277.49 635.85 285.51 636.84 293.7 637.01 301.99 636.79 310.36 635.81 318.79 634.09 327.23 632.12 335.72 629.55 344.2 626.43 352.63 623.3 361.08 619.81 369.47 616.06 377.76 612.58 386.06 609.03 394.25 605.5 402.28 602.52 410.32 599.78 418 597.33 425.31 595.53 432.61 594.03 439.53 592.83 446.05 592.08 455.61 592.19 472.66 592.67 480.2 593.49 487.39 594.09 500.34 593.5 506.34 592.34 512.57 587.11 525.63 582.93 532.91 579.75 538.38 575.99 544.2 571.69 550.43 567.18 557.26 562.15 564.53 556.65 572.21 550.98 580.4 544.88 588.89 538.4 597.56 531.8 606.45 524.86 615.27 517.64 623.8 510.34 632.06 502.79 639.68 495.05 646.4 487.27 652.34 479.32 657.03 471.24 660.3 463.14 662.4 454.93 662.91 446.64 661.76 438.34 659.44 429.98 655.59 421.55 650.33 413.13 644.34 404.86 637.53 396.74 630.2 388.61 622.9 380.63 615.6 372.8 608.53 364.95 602.14 357.25 596.32 349.69 591.17 342.1 587.03 334.64 583.64 327.32 580.95 319.95 579.25 312.71 578.11 305.6 577.4 298.43 577.38 291.38 577.52 284.47 577.67 277.5 578.13 270.66 578.33 263.96 578.15 257.22 577.93 250.62 577.15 244.2 575.73 237.74 574.06 231.48 571.68 225.43 568.58 219.38 565.15 213.57 561.02 208.03 556.22 202.54 551.12 197.35 545.43 192.51 539.22 187.75 532.77 183.37 525.88 179.39 518.64 175.56 511.25 172.16 503.58 169.24 495.7 166.49 487.75 164.23 479.64 162.5 471.45 160.96 463.22 159.96 454.94 159.51 446.65 159.25 438.35 159.54 430.05 160.4 421.78 161.41 413.51 162.93 405.46 164.93 397.63 167.02 389.79 169.54 382.14 172.45 374.7 175.39 367.21 178.68 359.88 182.27 352.71 185.83 345.46 189.67 338.31 193.75 331.26 197.74 324.1 201.95 316.98 206.35 309.89 210.62 302.65 215.08 295.41 219.69 288.16 224.16 280.73 228.79 273.28 233.57 265.81 238.21 258.2 243 250.58 247.95 243.01 252.77 235.37 257.75 227.83 262.91 220.47 267.95 213.17 273.18 206.15 278.6 199.5 283.93 193.09 289.46 187.18 295.21 181.86 300.88 176.95 306.79 172.76 312.91 169.35 318.98 166.45 325.29 164.39 331.83 163.19 338.34 162.48 345.09 162.59 352.08 163.49 359.05 164.69 366.26 166.52 373.72 168.9 381.16 171.27 388.86 173.96 396.81 176.86" stroke-dasharray="7 10" transform="rotate(40.400000000000006, 400, 400)" opacity="0.84"></path><path d="M402.63 191.66C410.18 194.13 417.81 196.57 425.48 198.9 433.16 200.72 440.9 202.37 448.67 203.83 456.47 204.77 464.3 205.57 472.15 206.26 480.01 206.54 487.89 206.82 495.75 207.18 503.61 207.32 511.44 207.66 519.19 208.29 526.93 208.88 534.55 209.88 542.03 211.31 549.44 212.88 556.65 214.97 563.6 217.59 570.42 220.44 576.92 223.84 583.03 227.77 588.94 231.97 594.39 236.68 599.32 241.86 603.97 247.28 608.04 253.13 611.47 259.34 614.56 265.74 616.98 272.46 618.68 279.43 620.03 286.54 620.67 293.85 620.6 301.3 620.23 308.85 619.19 316.49 617.52 324.19 615.68 331.94 613.31 339.72 610.47 347.47 607.66 355.25 604.52 362.99 601.15 370.64 598.02 378.31 594.81 385.87 591.6 393.31 588.84 400.74 586.27 407.85 583.91 414.63 582.11 421.4 580.55 427.83 579.21 433.92 578.1 442.87 577.26 459.15 577.24 466.55 577.56 473.77 577.5 487.4 576.8 494.06 575.71 501.07 571.15 516.04 567.57 524.33 564.87 530.39 561.67 536.76 557.97 543.46 554.12 550.63 549.8 558.11 545.03 565.86 540.12 573.94 534.79 582.17 529.1 590.42 523.29 598.74 517.14 606.83 510.7 614.54 504.18 621.91 497.39 628.58 490.38 634.38 483.33 639.42 476.08 643.31 468.66 645.9 461.22 647.47 453.63 647.63 445.93 646.34 438.22 644.04 430.39 640.41 422.48 635.53 414.57 630.02 406.76 623.77 399.06 617.01 391.36 610.24 383.76 603.39 376.28 596.66 368.79 590.47 361.41 584.68 354.14 579.41 346.86 574.97 339.67 571.14 332.61 567.9 325.51 565.53 318.52 563.66 311.65 562.22 304.74 561.45 297.94 560.9 291.26 560.46 284.55 560.4 277.96 560.23 271.52 559.84 265.05 559.55 258.72 558.87 252.57 557.72 246.41 556.47 240.44 554.66 234.69 552.26 228.95 549.65 223.45 546.44 218.23 542.64 213.06 538.61 208.19 534.03 203.64 528.93 199.2 523.64 195.11 517.89 191.42 511.75 187.86 505.47 184.72 498.86 182.04 491.98 179.51 485.01 177.45 477.82 175.89 470.45 174.51 463.05 173.63 455.51 173.28 447.88 173.1 440.23 173.44 432.5 174.31 424.71 175.32 416.93 176.82 409.27 178.77 401.74 180.8 394.21 183.25 386.79 186.06 379.5 188.91 372.17 192.09 364.94 195.57 357.79 199.02 350.58 202.74 343.43 206.7 336.32 210.59 329.13 214.68 321.95 218.97 314.78 223.15 307.51 227.5 300.22 232.01 292.94 236.4 285.54 240.94 278.15 245.62 270.78 250.18 263.33 254.88 255.94 259.72 248.66 264.44 241.38 269.32 234.26 274.35 227.39 279.27 220.64 284.36 214.22 289.61 208.22 294.78 202.49 300.14 197.28 305.68 192.66 311.15 188.44 316.82 184.91 322.69 182.11 328.51 179.77 334.54 178.2 340.78 177.41 346.99 177.04 353.43 177.4 360.08 178.45 366.71 179.75 373.57 181.6 380.66 183.94 387.75 186.25 395.06 188.86 402.62 191.65" stroke-dasharray="1 1" transform="rotate(44.44, 400, 400)" opacity="0.86"></path><path d="M408.26 206.45C415.41 208.85 422.61 211.23 429.84 213.53 437.07 215.38 444.35 217.09 451.65 218.65 458.95 219.74 466.27 220.7 473.58 221.56 480.89 222.02 488.19 222.47 495.43 222.96 502.67 223.2 509.83 223.59 516.89 224.18 523.91 224.68 530.79 225.49 537.49 226.65 544.1 227.87 550.49 229.51 556.6 231.59 562.58 233.82 568.22 236.53 573.49 239.71 578.55 243.08 583.18 246.92 587.32 251.19 591.21 255.67 594.56 260.55 597.34 265.8 599.83 271.22 601.72 276.96 602.99 282.97 603.98 289.12 604.35 295.5 604.1 302.06 603.63 308.71 602.58 315.49 601 322.37 599.3 329.31 597.16 336.31 594.6 343.32 592.09 350.36 589.3 357.4 586.28 364.4 583.49 371.4 580.61 378.35 577.69 385.2 575.16 392.05 572.76 398.64 570.51 404.95 568.73 411.27 567.12 417.31 565.69 423.08 564.29 431.63 562.63 447.54 562.14 455.01 562 462.44 561.24 476.98 560.36 484.31 559.23 492.05 555.07 508.6 551.92 517.61 549.59 524.05 546.83 530.74 543.63 537.67 540.32 544.92 536.58 552.36 532.44 559.94 528.19 567.71 523.55 575.48 518.55 583.15 513.46 590.75 508.04 598.05 502.32 604.88 496.53 611.33 490.47 617.08 484.16 621.98 477.82 626.18 471.25 629.33 464.49 631.32 457.71 632.42 450.76 632.29 443.65 630.89 436.54 628.64 429.29 625.23 421.91 620.74 414.54 615.7 407.22 609.97 399.98 603.78 392.73 597.54 385.56 591.16 378.47 584.82 371.37 578.88 364.36 573.21 357.43 567.92 350.49 563.3 343.64 559.15 336.88 555.49 330.11 552.56 323.42 550.07 316.84 547.97 310.24 546.5 303.74 545.27 297.36 544.21 290.95 543.56 284.67 542.9 278.53 542.15 272.38 541.59 266.38 540.78 260.55 539.65 251.92 537.77 235.73 531.66 228.27 527.3 223.45 524.08 218.92 520.36 214.7 516.18 210.59 511.85 206.82 507.08 203.43 501.91 200.16 496.62 197.29 490.98 194.85 485.02 192.55 478.99 190.7 472.68 189.31 466.13 188.09 459.55 187.33 452.76 187.07 445.8 186.96 438.82 187.34 431.7 188.22 424.43 189.23 417.17 190.69 409.94 192.57 402.77 194.54 395.6 196.9 388.47 199.6 381.39 202.34 374.29 205.4 367.22 208.74 360.19 212.07 353.12 215.65 346.06 219.47 339.02 223.23 331.92 227.2 324.82 231.34 317.73 235.41 310.57 239.65 303.42 244.03 296.28 248.32 289.1 252.75 281.95 257.32 274.86 261.78 267.77 266.38 260.78 271.1 253.94 275.73 247.18 280.49 240.64 285.39 234.37 290.19 228.28 295.15 222.56 300.25 217.27 305.27 212.26 310.46 207.77 315.8 203.87 321.08 200.33 326.54 197.44 332.18 195.22 337.77 193.41 343.54 192.29 349.51 191.86 355.44 191.79 361.57 192.35 367.9 193.52 374.21 194.89 380.73 196.74 387.46 199.02 394.17 201.26 401.11 203.76 408.25 206.45" stroke-dasharray="4 3" transform="rotate(48.48, 400, 400)" opacity="0.82"></path><path d="M413.34 221.25C420.06 223.56 426.8 225.86 433.56 228.11 440.32 229.98 447.09 231.74 453.86 233.38 460.63 234.59 467.39 235.71 474.11 236.73 480.82 237.39 487.49 238.02 494.07 238.66 500.64 239.04 507.1 239.52 513.43 240.15 519.71 240.65 525.83 241.38 531.74 242.37 540.35 244.02 556.02 249.2 562.91 252.84 569.14 257.07 579.09 267.74 582.67 274.1 585.39 281 587.82 296.44 587.55 304.83 587.03 310.57 586.02 316.49 584.56 322.53 583.02 328.63 581.1 334.82 578.82 341.08 576.61 347.37 574.14 353.7 571.47 360.03 568.99 366.37 566.41 372.71 563.78 379.01 561.47 385.31 559.24 391.43 557.11 397.34 554.57 406.13 550.64 422.78 549.18 430.71 548.28 438.56 546.82 453.87 546.05 461.47 545.36 469.29 543.02 485.49 541.19 494.02 539.87 500.01 538.21 506.16 536.19 512.49 534.12 519.07 531.68 525.83 528.88 532.72 525.99 539.82 522.73 547 519.12 554.19 515.42 561.45 511.37 568.61 506.98 575.57 502.53 582.37 497.76 588.81 492.69 594.75 487.58 600.28 482.18 605.14 476.54 609.19 470.87 612.62 464.96 615.1 458.84 616.56 452.71 617.26 446.38 616.89 439.88 615.42 433.37 613.25 426.7 610.07 419.88 605.94 413.07 601.35 406.27 596.15 399.52 590.51 392.76 584.8 386.05 578.91 379.39 572.99 372.73 567.35 366.13 561.88 359.59 556.67 353.05 551.98 346.58 547.65 340.18 543.69 333.78 540.33 327.46 537.34 321.22 534.68 314.99 532.58 308.84 530.72 302.81 529.05 296.77 527.8 290.85 526.6 285.07 525.39 276.48 523.87 260.15 520.09 252.48 517.53 245.1 514.59 231.67 506.65 225.73 501.59 220.24 495.99 211.18 482.74 207.68 475.18 205.62 469.98 203.98 464.47 202.76 458.68 201.69 452.87 201.06 446.8 200.87 440.51 200.84 434.2 201.25 427.68 202.12 420.97 203.12 414.26 204.54 407.52 206.35 400.77 208.23 394.01 210.48 387.24 213.06 380.47 215.67 373.69 218.59 366.9 221.78 360.11 224.96 353.29 228.39 346.47 232.04 339.64 235.65 332.8 239.47 325.94 243.46 319.1 247.39 312.24 251.48 305.39 255.72 298.59 259.88 291.8 264.18 285.07 268.61 278.44 272.95 271.87 277.42 265.44 282.02 259.2 286.53 253.08 291.16 247.22 295.92 241.66 300.6 236.31 305.41 231.33 310.35 226.79 315.22 222.53 320.24 218.77 325.39 215.56 333.12 211.53 349.27 207.02 357.73 206.55 363.39 206.72 369.23 207.45 375.23 208.71 381.22 210.11 387.4 211.94 393.75 214.14 400.09 216.29 406.62 218.68 413.33 221.25" stroke-dasharray="9 8" transform="rotate(52.52, 400, 400)" opacity="0.29"></path><path d="M417.54 236.05C423.79 238.25 430.06 240.47 436.3 242.66 442.56 244.52 448.79 246.31 455 248 467.4 250.29 479.62 252.31 491.45 254.22 503.17 255.09 514.35 256.37 524.71 258.33 534.74 260.04 543.72 262.9 551.35 267.01 558.4 271.4 563.87 277.2 567.55 284.28 570.53 291.76 571.68 300.41 570.99 309.99 569.84 319.82 567.16 330.39 563.14 341.42 561.2 346.97 559.04 352.6 556.7 358.3 554.52 364.01 552.23 369.76 549.87 375.55 547.78 381.34 545.72 387.01 543.72 392.57 542.05 398.14 540.44 403.59 538.91 408.94 536.82 419.7 534.89 430.16 532.98 440.41 531.98 450.99 530.59 461.67 528.6 472.56 526.94 484.1 524.3 496.13 520.56 508.58 516.75 521.7 511.67 535.1 505.33 548.35 498.78 561.49 490.99 573.66 482.07 584.09 472.99 592.97 462.88 599.03 451.9 601.63 446.38 601.99 440.66 601.43 434.76 599.93 428.85 597.85 422.77 594.91 416.53 591.15 410.28 587 404.03 582.3 397.8 577.19 391.56 572.01 385.34 566.61 379.16 561.14 366.8 550.86 354.57 541.14 342.62 532.43 330.67 525.64 318.99 519.93 307.72 515.1 296.5 511.8 285.74 508.68 275.61 505.32 265.63 502.56 256.38 498.91 248.07 494.14 240.06 489.34 233.13 483.16 227.47 475.63 222.28 467.92 218.48 458.9 216.24 448.7 215.07 440.86 214.95 423.88 216.03 414.79 217.01 408.65 218.37 402.43 220.09 396.16 221.88 389.89 224.01 383.56 226.44 377.2 231.43 364.48 237.49 351.6 244.43 338.72 251.28 325.84 258.87 312.98 267.05 300.37 274.99 287.93 283.48 275.94 292.41 264.77 301.07 254.16 310.21 244.74 319.79 236.92 329.14 230.13 339.02 225.27 349.38 222.59 359.61 221.03 370.41 221.53 381.78 224 387.43 225.41 393.25 227.19 399.21 229.3 405.16 231.35 411.27 233.61 417.53 236.04" stroke-dasharray="2 7" transform="rotate(56.56, 400, 400)" opacity="0.92"></path><path d="M420.56 250.84C432.11 254.79 443.58 258.76 454.81 262.52 466.03 265.03 476.97 267.36 487.43 269.57 497.77 270.81 507.5 272.35 516.4 274.36 525 275.99 532.58 278.5 538.9 282 544.74 285.58 549.18 290.34 552.06 296.21 554.41 302.31 555.22 309.51 554.45 317.62 553.4 325.91 551.05 334.99 547.55 344.68 544.31 354.42 540.37 364.66 535.96 375.26 532.45 385.87 528.97 396.34 525.65 406.62 523.38 416.98 521.16 427.31 518.93 437.62 517.48 448.21 515.69 459.02 513.42 470.05 511.5 481.55 508.8 493.39 505.21 505.45 501.65 517.85 497.03 530.22 491.34 542.16 485.55 553.74 478.65 564.18 470.75 572.87 462.73 580.12 453.76 584.84 443.93 586.55 434.05 586.22 423.39 582.78 412.07 576.35 400.74 568.65 389.32 559.34 377.96 549.27 366.63 539.7 355.38 530.36 344.34 521.67 333.35 514.46 322.59 508.06 312.23 502.4 301.94 498.06 292.09 494.01 282.86 489.93 273.79 486.53 265.42 482.58 257.94 477.86 250.76 473.29 244.57 467.66 239.57 460.91 234.98 454.1 231.66 446.14 229.77 437.08 228.35 427.96 228.37 417.8 229.94 406.68 231.92 395.56 235.26 384.05 239.76 372.34 244.44 360.65 250.12 348.79 256.63 336.94 263.1 325.18 270.28 313.5 278.03 302.18 285.61 291.11 293.72 280.6 302.24 270.98 310.56 261.94 319.33 254.09 328.48 247.76 337.45 242.34 346.88 238.65 356.71 236.88 366.43 235.98 376.64 236.85 387.28 239.4 397.89 242.2 409 246.11 420.55 250.84" stroke-dasharray="10 1" transform="rotate(60.599999999999994, 400, 400)" opacity="0.29"></path><path d="M422.21 265.64C432.75 269.37 443.11 273.2 453.15 276.92 463.17 279.61 472.82 282.18 481.94 284.67 490.95 286.29 499.32 288.11 506.85 290.28 514.14 291.99 520.47 294.37 525.65 297.52 532.27 302.6 538.45 317.64 537.99 327.55 537.07 334.55 535.06 342.35 532.07 350.84 529.32 359.36 525.93 368.51 522.05 378.19 518.9 387.88 515.66 397.66 512.45 407.47 510.09 417.34 507.69 427.36 505.22 437.48 503.4 447.81 501.29 458.38 498.77 469.13 496.62 480.16 493.82 491.38 490.31 502.61 486.9 513.92 482.62 524.98 477.45 535.39 472.25 545.31 466.11 554.03 459.08 561.06 451.99 566.82 444.03 570.36 435.28 571.32 426.5 570.64 416.98 567.36 406.8 561.55 396.63 554.71 386.32 546.43 376.04 537.36 365.79 528.58 355.59 519.78 345.57 511.34 335.61 503.98 325.86 497.17 316.48 490.93 307.2 485.79 298.34 480.92 290.06 476.16 281.95 472.06 274.5 467.66 267.88 462.77 261.53 458.13 256.1 452.72 251.74 446.46 247.75 440.23 244.91 433.05 243.34 424.92 242.18 416.77 242.32 407.68 243.85 397.7 245.74 387.73 248.85 377.37 253.01 366.83 257.35 356.33 262.62 345.7 268.65 335.13 274.69 324.69 281.4 314.43 288.65 304.59 295.8 295.05 303.45 286.14 311.49 278.12 319.38 270.66 327.69 264.34 336.34 259.41 344.86 255.23 353.76 252.57 363 251.56 372.15 251.2 381.7 252.34 391.58 254.9 401.43 257.59 411.67 261.24 422.21 265.64" stroke-dasharray="1 3" transform="rotate(64.64, 400, 400)" opacity="0.12"></path><path d="M422.38 280.43C431.87 283.92 441.1 287.57 449.95 291.21 458.77 294 467.17 296.75 475.02 299.47 482.76 301.44 489.86 303.56 496.17 305.94 504.9 309.05 517.15 317.83 520.35 323.94 521.87 328.26 522.29 333.41 521.62 339.36 520.87 345.33 519.2 352.08 516.68 359.54 514.39 367.01 511.51 375.16 508.14 383.95 505.34 392.75 502.37 401.79 499.32 410.98 496.94 420.23 494.45 429.7 491.83 439.33 489.75 449.08 487.4 459.05 484.7 469.11 482.34 479.29 479.45 489.52 476 499.57 472.68 509.53 468.65 519.07 463.91 527.85 459.17 536.08 453.66 543.14 447.4 548.64 441.11 553.08 434.06 555.6 426.32 555.95 418.55 555.03 410.12 551.95 401.08 546.76 392.05 540.74 382.88 533.45 373.72 525.39 364.58 517.47 355.47 509.34 346.54 501.35 337.67 494.1 328.99 487.18 320.67 480.64 312.44 474.95 304.61 469.5 297.32 464.18 290.2 459.46 283.69 454.6 277.93 449.45 272.42 444.59 267.74 439.22 264.02 433.24 260.61 427.35 258.23 420.73 256.97 413.37 256.06 406.01 256.3 397.88 257.76 389.02 259.53 380.16 262.4 371.01 266.2 361.75 270.17 352.53 274.99 343.26 280.51 334.13 286.06 325.14 292.25 316.41 298.94 308.16 305.57 300.2 312.68 292.89 320.15 286.45 327.54 280.5 335.3 275.58 343.35 271.91 351.32 268.82 359.62 267.03 368.18 266.63 376.69 266.69 385.5 268 394.55 270.48 403.59 273.02 412.89 276.39 422.38 280.43" stroke-dasharray="5 10" transform="rotate(68.68, 400, 400)" opacity="0.22"></path><path d="M421.06 295.23C429.47 298.45 437.56 301.88 445.24 305.36 452.9 308.18 460.1 311.04 466.75 313.92 476.3 317.36 491.75 324.56 497.32 328.78 501.75 333.18 505.75 344.89 505.37 352.38 504.81 357.58 503.46 363.49 501.4 370.07 499.53 376.64 497.12 383.9 494.22 391.81 491.77 399.72 489.09 407.93 486.25 416.35 483.93 424.8 481.42 433.5 478.76 442.33 476.53 451.21 474.03 460.24 471.23 469.27 468.72 478.29 465.78 487.23 462.39 495.87 459.14 504.31 455.33 512.24 450.95 519.37 446.61 525.98 441.64 531.49 436.06 535.63 430.46 538.91 424.24 540.58 417.43 540.46 410.61 539.38 403.21 536.54 395.29 531.96 387.38 526.75 379.34 520.42 371.31 513.37 363.3 506.35 355.33 499.01 347.52 491.63 339.77 484.73 332.21 477.97 324.97 471.42 317.83 465.49 311.05 459.72 304.78 454.07 298.65 448.91 293.07 443.69 288.18 438.33 283.49 433.25 279.54 427.85 276.43 422.06 273.59 416.38 271.63 410.2 270.66 403.5 269.97 396.81 270.29 389.56 271.67 381.77 273.31 373.98 275.91 366.04 279.34 358.09 282.91 350.18 287.25 342.32 292.22 334.69 297.24 327.18 302.84 319.99 308.9 313.32 314.95 306.89 321.44 301.11 328.26 296.14 335.04 291.55 342.15 287.88 349.52 285.29 356.84 283.11 364.44 282.02 372.24 282.07 380.01 282.43 388.02 283.8 396.17 286.16 404.32 288.5 412.65 291.56 421.06 295.23" stroke-dasharray="0 9" transform="rotate(72.72, 400, 400)" opacity="0.74"></path><path d="M418.33 310.02C425.65 312.95 432.62 316.11 439.17 319.38 445.7 322.15 451.78 325.03 457.34 327.96 465.31 331.7 478.02 339.46 482.56 343.79 486.19 348.16 489.53 359.07 489.29 365.81 488.91 370.44 487.87 375.66 486.22 381.49 484.74 387.29 482.76 393.7 480.32 400.72 478.2 407.73 475.82 415.03 473.24 422.52 471.03 430.02 468.6 437.72 465.99 445.49 463.7 453.27 461.16 461.11 458.36 468.84 455.79 476.51 452.86 483.99 449.58 491.08 446.42 497.95 442.83 504.28 438.79 509.83 432.56 517 417.67 524.82 409.01 524.86 403.06 523.71 396.65 521.14 389.82 517.17 382.98 512.71 376.06 507.32 369.16 501.26 362.28 495.18 355.45 488.71 348.78 482.09 342.16 475.75 335.72 469.4 329.58 463.13 323.52 457.26 317.81 451.47 312.53 445.77 307.39 440.42 302.73 435.05 298.67 429.64 294.78 424.45 291.52 419.08 289 413.51 286.68 408.03 285.13 402.25 284.42 396.16 283.93 390.08 284.29 383.65 285.58 376.89 287.07 370.12 289.39 363.36 292.42 356.69 295.58 350.06 299.4 343.59 303.79 337.4 308.23 331.31 313.2 325.6 318.58 320.39 323.98 315.38 329.76 310.96 335.86 307.28 341.94 303.86 348.31 301.24 354.91 299.51 361.49 298.06 368.29 297.49 375.25 297.85 382.2 298.39 389.31 299.75 396.51 301.91 403.72 304.02 411.02 306.75 418.33 310.02" stroke-dasharray="4 3" transform="rotate(76.76, 400, 400)" opacity="0.35"></path><path d="M414.38 324.82C426.81 329.69 437.84 335.46 447.02 341.58 456.04 346.26 463.04 351.68 467.62 357.91 471.96 363.34 473.92 370.26 473.4 378.78 473.02 387.08 470.65 397.35 466.41 409.53 463.1 421.71 458.66 434.76 453.5 447.86 449.27 460.87 443.95 473.6 437.62 484.9 431.71 495.35 424.33 503.42 415.58 507.85 406.88 510.4 396.6 508.7 385.02 502.37 373.44 494.67 361.73 484.24 350.59 472.65 339.6 461.64 329.4 450.25 320.7 439.1 312.4 428.88 305.86 418.45 301.74 407.85 298.24 397.58 297.32 386.57 299.49 375.01 302.28 363.44 307.77 352.43 315.24 342.64 322.96 333.12 332.45 325.28 343.02 319.85 353.61 315.08 365.25 313 377.32 313.94 389.4 315.19 401.96 318.9 414.38 324.82" stroke-dasharray="2 2" transform="rotate(80.80000000000001, 400, 400)" opacity="0.15"></path><path d="M409.48 339.62C419.71 343.87 428.69 349.07 436.07 354.75 443.37 359.43 448.99 364.83 452.67 370.87 456.25 376.29 457.96 382.81 457.71 390.47 457.62 397.93 455.88 406.84 452.5 417.11 449.75 427.37 445.88 438.08 441.26 448.57 437.27 458.92 432.31 468.72 426.53 477.09 421.07 484.79 414.5 490.42 406.93 493.15 399.43 494.63 390.78 492.86 381.22 487.57 371.65 481.34 362.13 472.85 353.18 463.22 344.33 453.82 336.22 443.79 329.39 433.78 322.85 424.3 317.78 414.64 314.69 405.05 312.02 395.68 311.47 386.03 313.4 376.37 315.78 366.71 320.38 357.95 326.61 350.49 333.05 343.18 340.98 337.45 349.83 333.75 358.74 330.38 368.52 329.16 378.63 330.27 388.77 331.45 399.24 334.61 409.48 339.62" stroke-dasharray="8 6" transform="rotate(84.84, 400, 400)" opacity="0.79"></path><path d="M403.94 354.41C412.02 357.97 419.05 362.45 424.81 367.44 430.53 371.83 434.94 376.88 437.87 382.43 440.78 387.58 442.27 393.52 442.25 400.18 442.37 406.71 441.17 414.18 438.59 422.46 436.4 430.74 433.19 439.06 429.26 446.93 425.71 454.69 421.33 461.76 416.31 467.53 411.5 472.85 405.86 476.51 399.55 477.97 393.3 478.68 386.27 477.02 378.67 472.78 371.07 467.95 363.64 461.34 356.76 453.73 349.94 446.14 343.79 437.87 338.69 429.46 333.77 421.29 330.04 412.94 327.85 404.75 325.94 396.68 325.66 388.59 327.31 380.81 329.26 373.03 332.94 366.27 337.9 360.76 343.03 355.31 349.35 351.24 356.4 348.77 363.54 346.44 371.36 345.74 379.43 346.8 387.53 347.81 395.85 350.35 403.94 354.41" stroke-dasharray="1 8" transform="rotate(88.88, 400, 400)" opacity="0.51"></path><path d="M398.13 369.21C410.09 374.44 418.87 382.83 423.38 392.47 427.91 401.24 428.56 412.43 424.68 424.89 421.66 437.35 415.16 448.73 406.92 456.24 399.16 462.74 388.91 463.94 377.54 457.98 366.17 450.72 355.84 438.7 348.66 425.72 341.87 413.03 338.77 399.53 341.22 387.74 344.37 375.95 352.46 367.91 362.87 364.64 373.51 361.43 386.17 362.84 398.13 369.21" stroke-dasharray="3 9" transform="rotate(92.92, 400, 400)" opacity="0.92"></path><path d="M392.45 384C400.31 387.73 406.17 393.88 409.32 400.95 412.52 407.67 413.19 415.79 410.77 424.09 408.72 432.38 404.13 439.26 398.29 443.32 392.66 446.97 385.5 447.26 377.91 443.19 370.33 438.55 363.74 430.75 359.35 422.11 355.12 413.5 353.34 404.22 355.13 396.26 357.24 388.3 362.54 383.06 369.35 381 376.3 378.87 384.59 379.75 392.45 384" stroke-dasharray="4 1" transform="rotate(96.96, 400, 400)" opacity="0.31"></path></g></svg>